<?xml version="1.0" encoding="UTF-8"?>
<svg width="900" height="600" version="1.1" xmlns="http://www.w3.org/2000/svg" xmlns:xlink="http://www.w3.org/1999/xlink"><defs><style type="text/css">.str3 {stroke:#595959;stroke-width:8;stroke-linejoin:round}
    .str1 {stroke:#000000;stroke-width:14}
    .str2 {stroke:#000000;stroke-width:14}
    .str0 {stroke:#000000;stroke-width:14;stroke-linejoin:round}
    .str7 {stroke:#990099;stroke-width:14}
    .str5 {stroke:#99FF99;stroke-width:14}
    .str6 {stroke:#000000;stroke-width:21;stroke-linejoin:round}
    .str4 {stroke:#3300CC;stroke-width:21;stroke-linejoin:round}
    .str8 {stroke:#FF9999;stroke-width:21;stroke-linejoin:round}
    .fil7 {fill:none}
    .fil8 {fill:#00FF00}
    .fil0 {fill:#336699}
    .fil3 {fill:#990000}
    .fil9 {fill:#9966FF}
    .fil5 {fill:#99FFFF}
    .fil4 {fill:#CC3300}
    .fil10 {fill:#FF6600}
    .fil1 {fill:#FF9933}
    .fil2 {fill:#FFFF99}
    .fil6 {fill:#FFFFFF}</style></defs><rect width="900" height="600" fill="#173"/><path id="s" d="m450 462.5 22.042 67.838-57.707-41.926h71.329l-57.707 41.926z" fill="#fc0"/><g fill="#ffcc00"><use y="-400" width="100%" height="100%" xlink:href="#s"/><use transform="translate(-100 -26.795)" width="100%" height="100%" xlink:href="#s"/><use transform="translate(-173.21 -100)" width="100%" height="100%" xlink:href="#s"/><use transform="translate(-200,-200)" width="100%" height="100%" xlink:href="#s"/><use transform="translate(-173.21 -300)" width="100%" height="100%" xlink:href="#s"/><use transform="translate(-100 -373.21)" width="100%" height="100%" xlink:href="#s"/><use transform="matrix(-1 0 0 1 1e3 -26.795)" width="100%" height="100%" xlink:href="#s"/><use transform="matrix(-1 0 0 1 1073.2 -100)" width="100%" height="100%" xlink:href="#s"/><use transform="matrix(-1,0,0,1,1100,-200)" width="100%" height="100%" xlink:href="#s"/><use transform="matrix(-1 0 0 1 1073.2 -300)" width="100%" height="100%" xlink:href="#s"/><use transform="matrix(-1 0 0 1 1e3 -373.21)" width="100%" height="100%" xlink:href="#s"/></g><g transform="matrix(.48673 0 0 .48963 570.05 134.06)" fill="none" stroke="#c22" stroke-linejoin="bevel" stroke-width="20.484"><path transform="matrix(2.0545 0 0 2.0424 -1171.2 -273.8)" d="m428.92 185c-7.8319 3.031-16.427-1.3229-24.58 1.9141-8.283 7.0141-18.144-4.7683-23.486 5.7734-10.273 4.2497-9.7754 17.989-21.914 19.836-5.2662 5.9174-11.808 12.919-14.771 20.078 2.54 7.1039 0.47308 16.249-4.1524 22.371 2.0824 4.7493-1.4449 11.2 5.5371 13.434 5.1744 9.8595 10.492 19.918 21.645 24.85 7.4804-5.1701 15.785 0.49456 23.492-2.7031 7.3009-4.3066 18.361-4.4969 21.635 4.5996 15.371-5.273 12.563 11.301 10.121 19.783 5.0203 5.9586 9.9828 11.972 12.375 19.709 2.763 3.2574-0.09524 8.3522 3.1973 11.711 1.3551 4.9946-4.9931 7.5536-4.041 12.527-6.534 14.545 10.79 24.854 9.9316 39.582 6.4448 8.2015 7.8943 18.825 13.697 26.211 9.2868-2.5166 21.108-1.0035 28.848-8.2949 7.223-5.745 11.342-15.206 14.258-22.039 14.839-2.7148-1.7737-19.316 12.414-23.402 10.504-3.1553 15.22-11.658 12.697-22.516-2.2002-6.4803-3.9377-13.525-4.1211-20.574 0.85875-2.867 3.9157-5.9185 4.3906-9.2324 8.5865-7.1144 15.709-16.281 24.029-24.039 5.0289-7.8668 10.254-17.792 9.332-26.982-7.006 0.52344-24.061 10.455-25.158 0.06054-3.2749-6.5349-14.094-8.3598-15.324-17.158-6.1846-6.9823-8.914-16.484-13.674-24.117-3.0063-5.1148-10.933-14.84-9.998-18.266 1.5122 8.176 8.6733 8.6176 5.8008 0.82812-1.2391-6.7553-9.9544-2.9624-15.564-4.1914-9.8719 3.9136-19.061-9.2953-26.873-1.7539 0.9131 10.379-12.886 0.83633-16.328-2.4219-5.9965-0.31595-15.866-3.2083-9.5508-9.8066 0.47073-3.888 0.7558-4.604-3.834-5.7695-0.00881 0.00514-0.02059-0.00543-0.0293 0zm124.69 165.68c-1.0202 1.555-0.78402 3.7127-2.5801 4.8945-1.4963 1.8104-1.6124 4.4236-3.9746 5.4609-2.2488 1.5874-4.8485 2.615-7.5156 3.2324-2.4818 1.1894-1.0565 4.0129-2.2715 5.7109-1.2836 0.84058-0.7243 2.0173-0.33593 3.1465 0.63772 3.661-1.1856 7.2109-3.4316 9.9629-1.4398 2.1141-0.88476 4.226-0.50782 6.541 0.12004 2.3279 0.65368 5.2486 3.1699 6.0977 1.9883 1.3942 4.0672-0.46967 5.793-1.416 2.0951-0.45745 2.4009-2.8429 3.1504-4.5371 0.79667-1.9507 1.8663-3.7856 2.7285-5.7012 1.7611-2.6165 1.9103-5.9423 3.2246-8.7754 0.82055-2.2334 1.0921-4.7727 2.7637-6.5781-0.21222-2.2229 1.9713-4.2317 1.5195-6.334 0.61604-0.26971 1.2527 0.93584 1.8262 0.36719 0.60347-1.7462-0.94051-3.8427-0.52149-5.8516-0.05954-2.0624-0.30774-4.5031-1.9727-5.9004-0.32861-0.17782-0.69483-0.28382-1.0644-0.32031z" fill="none" image-rendering="optimizeQuality" shape-rendering="geometricPrecision" stroke="#c22" stroke-linejoin="bevel" stroke-width="10"/></g></svg>
