<svg version="1.1" xmlns="http://www.w3.org/2000/svg" xmlns:xlink="http://www.w3.org/1999/xlink" width="2400" height="1600" viewBox="0 0 2400 1600">
<g id="Rif-Amazigh-Peop">
<path id="Rectángulo-redon" d="M-0.000,0.000 L2400.000,0.000 L2400.000,1600.000 L-0.000,1600.000 L-0.000,0.000 z" fill="#C1272D" />
<path id="Relleno-de-color" d="M529.524,800.000 L1196.191,1466.667 L1862.857,800.000 L1196.191,133.333 L529.524,800.000 z" fill="#FFFFFF" />
<path id="Relleno-de-color" d="M1424.762,731.429 L1504.762,731.429 L1462.857,803.810 L1504.762,872.381 L1424.762,872.381 L1386.667,940.952 L1344.762,872.381 L1264.762,872.381 L1306.667,803.810 L1264.762,731.429 L1344.762,731.429 L1386.667,662.857 L1424.762,731.429 z" fill="#006233" />
<path id="Relleno-de-color" d="M1188.571,1062.857 C1040.000,1062.857 918.095,940.952 918.095,788.571 C918.095,640.000 1040.000,518.095 1188.571,518.095 C1226.667,518.095 1264.762,525.714 1299.048,540.952 C1295.238,540.952 1295.238,540.952 1291.429,540.952 C1154.286,540.952 1040.000,651.429 1040.000,788.571 C1040.000,925.714 1154.286,1040.000 1291.429,1040.000 C1295.238,1040.000 1295.238,1040.000 1299.048,1040.000 C1264.762,1055.238 1226.667,1062.857 1188.571,1062.857 z" fill="#006233" />
<path id="Rectángulo-1" d="M1453.960,861.907 C1439.911,845.923 1416.462,835.113 1389.614,834.031 C1389.614,834.031 1389.614,868.337 1389.614,868.337 C1380.720,868.337 1380.720,868.337 1380.720,868.337 C1380.720,868.337 1380.720,834.031 1380.720,834.031 C1353.872,835.113 1330.423,845.923 1316.374,861.907 C1316.374,861.907 1316.374,850.136 1316.374,850.136 C1330.424,834.152 1353.873,823.342 1380.720,822.261 C1380.720,822.261 1380.720,781.274 1380.720,781.274 C1353.873,780.193 1330.424,769.382 1316.374,753.399 C1316.374,753.399 1316.374,741.627 1316.374,741.627 C1330.423,757.611 1353.872,768.422 1380.720,769.503 C1380.720,769.503 1380.720,735.198 1380.720,735.198 C1389.614,735.198 1389.614,735.198 1389.614,735.198 C1389.614,735.198 1389.614,769.503 1389.614,769.503 C1416.462,768.422 1439.911,757.611 1453.960,741.627 C1453.960,741.627 1453.960,753.399 1453.960,753.399 C1439.911,769.382 1416.461,780.193 1389.614,781.274 C1389.614,781.274 1389.614,822.261 1389.614,822.261 C1416.461,823.342 1439.911,834.152 1453.960,850.136 C1453.960,850.136 1453.960,861.907 1453.960,861.907 z" fill="#FFFFFF" />
</g>
</svg>
